# xmcd
#
# Track frame offsets:
#	150
#	13750
#	28342
#	47995
#	64110
#	80902
#	94950
#	105785
#	125715
#	136777
#	152350
#	195965
#	213237
#	248082
#	259400
#	276285
#	294445
#	309110
#
# Disc length: 4464 seconds
#
# Revision: 0
# Processed by: cddbd v1.5.2PL0 Copyright (c) Steve Scherf et al.
# Submitted via: audiograbber 1.83.01
#
DISCID=fb116e12
DTITLE=Poco - The Forgotten Trail (1969-74) [CD 2)
DYEAR=1990
DGENRE=Country Rock
TTITLE0=You Are The One [live version - remixed 16-track master]
TTITLE1=From The Inside [remixed 8-track master]
TTITLE2=A Good Feelin' To Know
TTITLE3=I Can See Everything [remixed 16-track master]
TTITLE4=And Settlin' Down
TTITLE5=Blue Water
TTITLE6=Fool's Gold
TTITLE7=Nothin's Still The Same [remixed 16-track master]
TTITLE8=Skunk Creek [remixed 16-track master]
TTITLE9=Here We Go Again
TTITLE10=Crazy Eyes
TTITLE11=Get In The Wind [remixed 16-track master]
TTITLE12=Believe Me [remixed 16-track master]
TTITLE13=Rocky Mountain Breakdown
TTITLE14=Faith In The Families
TTITLE15=Western Waterloo
TTITLE16=Whatever Happened To Your Smile
TTITLE17=Sagebrush Serenade
EXTD=
EXTT0=
EXTT1=
EXTT2=
EXTT3=
EXTT4=
EXTT5=
EXTT6=
EXTT7=
EXTT8=
EXTT9=
EXTT10=
EXTT11=
EXTT12=
EXTT13=
EXTT14=
EXTT15=
EXTT16=
EXTT17=
PLAYORDER=
